<svg width="19" height="19" viewBox="0 0 19 19" fill="none" xmlns="http://www.w3.org/2000/svg">
<path d="M18.0001 0.999939L12.0001 6.99994M12.0001 6.99994V2.99994M12.0001 6.99994L16.0001 6.99994M13.062 12.2507V12.2507C13.6052 11.5264 14.5886 11.2943 15.3983 11.6992L16.6337 12.3168C17.4404 12.7202 17.8773 13.6135 17.7004 14.4979L17.3216 16.3922C17.1346 17.3271 16.3109 18.0146 15.3636 17.9075C8.1005 17.0859 1.91414 10.8995 1.09253 3.63644C0.985367 2.68912 1.67292 1.86542 2.60777 1.67845L4.50207 1.29959C5.38646 1.12271 6.27982 1.55963 6.68316 2.36632L7.30084 3.60168C7.70571 4.41142 7.47356 5.39483 6.7493 5.93802V5.93802C6.27761 6.2918 5.99002 6.86004 6.21796 7.40381C7.00142 9.2728 9.7272 11.9986 11.5962 12.782C12.14 13.01 12.7082 12.7224 13.062 12.2507Z" stroke="black" stroke-width="2" stroke-linecap="round" stroke-linejoin="round"/>
</svg>
