<svg width="20" height="19" viewBox="0 0 20 19" fill="none" xmlns="http://www.w3.org/2000/svg">
<path d="M14 8H14.01M10 6H7M15 4V1C15 1 11.5 1 11 3H6.64452C4.44336 3 2.46395 4.34012 1.64646 6.38385V6.38385C1.2262 7.4345 1.14772 8.59087 1.42217 9.68867L3.12781 16.5113C3.34655 17.3862 4.13269 18 5.03457 18V18C6.12004 18 7 17.12 7 16.0346V15H11V16C11 17.1046 11.8954 18 13 18H13.0585C13.9193 18 14.6836 17.4491 14.9558 16.6325L16.5 12H18C18.5523 12 19 11.5523 19 11V8C19 7.44772 18.5523 7 18 7H17.5L15 4Z" stroke="black" stroke-width="2" stroke-linecap="round" stroke-linejoin="round"/>
</svg>
